<svg id="Warstwa_2" data-name="Warstwa 2" xmlns="http://www.w3.org/2000/svg" viewBox="0 0 177.39 86.79"><defs><style>.cls-1,.cls-2{fill:#fff;}.cls-1{stroke:#178dcd;}.cls-1,.cls-2,.cls-4{stroke-miterlimit:10;}.cls-2,.cls-4{font-size:19.37px;stroke:#fff;letter-spacing:-0.01em;}.cls-2{stroke-width:0.5px;font-family:SegoeScript, Segoe Script;}.cls-3{fill:#ed1c24;}.cls-4{fill:#178dcd;font-family:SegoeScript-Bold, Segoe Script;font-weight:700;}</style></defs><title>logo na strone</title><path class="cls-1" d="M-181,188.51l19.09-23.59,93.8-.29,18.64,23.88-55.94-1.43s-7,6-16.06,0Z" transform="translate(200.84 -131.5)"/><path class="cls-1" d="M-114.61,180.62c4.16,5.4,5.94,4.8,9.5,3.86,10.82-2.86,45.55-2.79,52.9,2.6,0,0-10.61-9.85-9.47-19.56l-24.07-18-30.31,15.92,1.45,15.2" transform="translate(200.84 -131.5)"/><path class="cls-1" d="M-114.61,180.62s.87.76-4.35,3.49c-6.34,3.31-9.63-5-57.44,2.46,0,0,1.6-21.94,31.31-35,3.07-2,29,13.82,29,13.82Z" transform="translate(200.84 -131.5)"/><path class="cls-1" d="M-114.61,180.62s14.2-14.49,54.51-13.05l-22.38-20.23s-22.12,5.88-33.58,18.08Z" transform="translate(200.84 -131.5)"/><path class="cls-1" d="M-114.61,180.62s-14-14.63-57.52-8.89l23.1-23.81s26.79,6.6,33,17.5Z" transform="translate(200.84 -131.5)"/><path class="cls-1" d="M-114.61,180.62s7.26-15.87,51.69-27.11l-17.6-11.28s-10.13.57-35.54,23.19Z" transform="translate(200.84 -131.5)"/><path class="cls-1" d="M-114.61,180.62s-10.76-19.51-53.93-20.37l18.36-16.06s22.49,6.31,34.12,21.23Z" transform="translate(200.84 -131.5)"/><path class="cls-1" d="M-114.61,180.62S-102.7,147.34-80.52,132H-94.86s-19.49,21.65-21.2,33.42Z" transform="translate(200.84 -131.5)"/><path class="cls-1" d="M-179.58,187.08" transform="translate(200.84 -131.5)"/><path class="cls-1" d="M-164.28,174.55s21.7-5.93,45.61,6.07" transform="translate(200.84 -131.5)"/><path class="cls-1" d="M-168.54,178.76s19.08-8,48.34,3" transform="translate(200.84 -131.5)"/><path class="cls-1" d="M-168.54,182.49s17.83-8.23,46.9.95" transform="translate(200.84 -131.5)"/><path class="cls-1" d="M-110.45,180.62c.78-.14,14.63-12.33,44.7-8.93" transform="translate(200.84 -131.5)"/><path class="cls-1" d="M-109.31,181.72s22-12.29,46.39-5.06" transform="translate(200.84 -131.5)"/><path class="cls-1" d="M-107.69,182.39c1.42.32,22.33-9.79,46.11-1.12" transform="translate(200.84 -131.5)"/><text class="cls-2" transform="translate(0.25 74.23)">JĘZYKO</text><path class="cls-3" d="M-25.77,208.34c.26,0,.16-.38.19-.46C-26,208-25.76,208.45-25.77,208.34Z" transform="translate(200.84 -131.5)"/><polygon class="cls-3" points="170.83 77.9 170.9 77.73 170.28 78.16 170.83 77.9"/><path class="cls-3" d="M-34,209.49c.39.7,1.44-.16,2.16.08l.12.16.3-.58A8.85,8.85,0,0,1-34,209.49Z" transform="translate(200.84 -131.5)"/><path class="cls-3" d="M-36.17,208c.14.28-.45.25.5.08l-.09-.07A2,2,0,0,1-36.17,208Z" transform="translate(200.84 -131.5)"/><path class="cls-3" d="M-35.76,208c.42,0-.28-.23,0,0Z" transform="translate(200.84 -131.5)"/><path class="cls-3" d="M-37.7,208.21l.55-.27c-.12-.16-.61-.18-.43-.31C-38.15,207.78-38,207.94-37.7,208.21Z" transform="translate(200.84 -131.5)"/><path class="cls-3" d="M-38.21,208.74l.28-.11C-38,208.56-38.06,208.54-38.21,208.74Z" transform="translate(200.84 -131.5)"/><path class="cls-3" d="M-37.32,208.39l-.61.24c.09.11.1.34.28-.09C-37.69,208.75-37.58,208.55-37.32,208.39Z" transform="translate(200.84 -131.5)"/><path class="cls-3" d="M-37,208.49c.32.15.72.24.17.5C-35.75,208.86-35.92,208.37-37,208.49Z" transform="translate(200.84 -131.5)"/><path class="cls-3" d="M-34.19,210.23l.42.2.35-.25C-33.59,210.3-34.22,210-34.19,210.23Z" transform="translate(200.84 -131.5)"/><path class="cls-3" d="M-41.16,207.92c0,.15.2.4.25.59l.4-.18C-40.72,208.23-41.12,208.14-41.16,207.92Z" transform="translate(200.84 -131.5)"/><path class="cls-3" d="M-40.91,208.51l-.61.28C-41,208.81-40.88,208.68-40.91,208.51Z" transform="translate(200.84 -131.5)"/><polygon class="cls-3" points="162.55 78.04 163.54 77.47 162.36 78.05 162.55 78.04"/><polygon class="cls-3" points="157.35 76.46 157.69 76.1 157.08 76.65 157.35 76.46"/><path class="cls-3" d="M-45,208.06c.25-.3-.37-.49-.1-.67a2.56,2.56,0,0,0-1.09.55A1.43,1.43,0,0,1-45,208.06Z" transform="translate(200.84 -131.5)"/><path class="cls-3" d="M-46.77,208.28a2.52,2.52,0,0,0,.54-.34A1.61,1.61,0,0,0-46.77,208.28Z" transform="translate(200.84 -131.5)"/><path class="cls-3" d="M-42.56,208.74a.73.73,0,0,0-.5-.42l.26.42Z" transform="translate(200.84 -131.5)"/><path class="cls-3" d="M-42.8,208.75h-.53Z" transform="translate(200.84 -131.5)"/><path class="cls-3" d="M-42.5,208.74h-.06S-42.53,208.79-42.5,208.74Z" transform="translate(200.84 -131.5)"/><path class="cls-3" d="M-39.9,209.19c-.36.24-1.1.52-.37.87C-40,209.76-40.44,209.56-39.9,209.19Z" transform="translate(200.84 -131.5)"/><path class="cls-3" d="M-42.19,209.27l.65.08c0-.11-.14-.28,0-.4Z" transform="translate(200.84 -131.5)"/><polygon class="cls-3" points="158.34 77.91 158.65 77.77 158.41 77.74 158.34 77.91"/><path class="cls-3" d="M-45.64,208.65a1.86,1.86,0,0,1-.93.26,5.36,5.36,0,0,0,1.12.1C-45.4,208.87-45.24,208.63-45.64,208.65Z" transform="translate(200.84 -131.5)"/><path class="cls-3" d="M-44.26,208.74l-.06,0S-44.25,208.81-44.26,208.74Z" transform="translate(200.84 -131.5)"/><path class="cls-3" d="M-50,209l.06.07s0,0,0-.07Z" transform="translate(200.84 -131.5)"/><path class="cls-3" d="M-45.38,209.09a.62.62,0,0,0,.6-.17,3.5,3.5,0,0,1-.67.09C-45.47,209.07-45.47,209.11-45.38,209.09Z" transform="translate(200.84 -131.5)"/><path class="cls-3" d="M-47.71,208.5a2.78,2.78,0,0,0,.49.23C-47.37,208.6-47.66,208.39-47.71,208.5Z" transform="translate(200.84 -131.5)"/><path class="cls-3" d="M-44.42,208.65l0,0C-44.47,208.54-44.46,208.58-44.42,208.65Z" transform="translate(200.84 -131.5)"/><path class="cls-3" d="M-44.42,208.65a1.36,1.36,0,0,0-.36.27,2.76,2.76,0,0,0,.46-.15A.58.58,0,0,1-44.42,208.65Z" transform="translate(200.84 -131.5)"/><path class="cls-3" d="M-50.95,211.76c0-.4.76-.79,1.41-.38.61-.31.17-1.6-.39-2.32,0,.18,0,.34-.65.59.23.21,1.44.47.91.84-.85.22-.7-.12-1.12-.32.36.48-1.07.74-.86,1.46l.74-.27C-50.9,211.47-51.16,211.66-50.95,211.76Z" transform="translate(200.84 -131.5)"/><path class="cls-3" d="M-48.7,209.08l.26-.06a2.28,2.28,0,0,1-.93-.52c-.43.21-.52.36-.55.49l1.3,0Z" transform="translate(200.84 -131.5)"/><path class="cls-3" d="M-47.26,209c-.19.44-.82.63-.42,1.09.77-.05.53-.37,1-.57-1.25.14.36-.25-.55-.47a2.92,2.92,0,0,1,.67-.13,5.56,5.56,0,0,1-.65-.18l0,0h0c.06.05.07.08,0,.05h0a.49.49,0,0,1-.06.17c-.36-.08-.06-.11.06-.17s0,0,0-.06h0l-1.25.27A4.39,4.39,0,0,0-47.26,209Z" transform="translate(200.84 -131.5)"/><path class="cls-3" d="M-40.91,211a.19.19,0,0,1-.05-.1C-41,211-41.06,211-40.91,211Z" transform="translate(200.84 -131.5)"/><path class="cls-3" d="M-41.43,210.75c.09-.06.16-.24.45-.2s0,.21,0,.35c.18-.12.62-.33.06-.52l-.09.06c-.51-.14-1.17-.66-1.08-.72A2.82,2.82,0,0,0-41.43,210.75Z" transform="translate(200.84 -131.5)"/><path class="cls-3" d="M-44.38,210l-1,.24.54.36,0-.23C-44.31,210.43-44.45,210.15-44.38,210Z" transform="translate(200.84 -131.5)"/><polygon class="cls-3" points="150.73 77.28 150.86 76.82 150.27 77.48 150.73 77.28"/><polygon class="cls-3" points="149.38 77.37 149.42 76.97 149.06 77.22 149.38 77.37"/><path class="cls-3" d="M-127.89,215.63l-.3.12A1.31,1.31,0,0,0-127.89,215.63Z" transform="translate(200.84 -131.5)"/><path class="cls-3" d="M-125.67,215.6l0-.19C-125.72,215.52-125.76,215.6-125.67,215.6Z" transform="translate(200.84 -131.5)"/><path class="cls-3" d="M-84.78,209.72c-.45-.36-1-.92-.9-.48l.15.43A1.09,1.09,0,0,1-84.78,209.72Z" transform="translate(200.84 -131.5)"/><path class="cls-3" d="M-107.53,212.86l.14.13.29-.42Z" transform="translate(200.84 -131.5)"/><path class="cls-3" d="M-107.8,214.66l-.6-.26A2.31,2.31,0,0,0-107.8,214.66Z" transform="translate(200.84 -131.5)"/><path class="cls-3" d="M-140,216.38l-.35.45C-139.79,216.82-140,216.6-140,216.38Z" transform="translate(200.84 -131.5)"/><path class="cls-3" d="M-65.35,209.36a3.09,3.09,0,0,0-1-.24C-65.85,209.36-65.47,209.72-65.35,209.36Z" transform="translate(200.84 -131.5)"/><path class="cls-3" d="M-127.13,211c-.18.08-.26.17-.25.27C-127.19,211.2-127.08,211.11-127.13,211Z" transform="translate(200.84 -131.5)"/><path class="cls-3" d="M-67.44,209.15l.21.1a2.6,2.6,0,0,1,.91-.13A1,1,0,0,0-67.44,209.15Z" transform="translate(200.84 -131.5)"/><path class="cls-3" d="M-184,217.09s-.07,0-.1-.05S-184.06,217.1-184,217.09Z" transform="translate(200.84 -131.5)"/><path class="cls-3" d="M-196.91,213a3.39,3.39,0,0,1,.52-.05A1,1,0,0,0-196.91,213Z" transform="translate(200.84 -131.5)"/><path class="cls-3" d="M-56.93,208.81c.29,0,0-.05,0,0Z" transform="translate(200.84 -131.5)"/><path class="cls-3" d="M-55.49,210.49a.29.29,0,0,0-.11.21A.35.35,0,0,1-55.49,210.49Z" transform="translate(200.84 -131.5)"/><path class="cls-3" d="M-70.24,211.92h0C-70.17,212-70.19,212-70.24,211.92Z" transform="translate(200.84 -131.5)"/><path class="cls-3" d="M-56.49,209a1.79,1.79,0,0,0-.37-.12A1.1,1.1,0,0,0-56.49,209Z" transform="translate(200.84 -131.5)"/><path class="cls-3" d="M-56.55,208.79l.25,0C-56.27,208.75-56.3,208.71-56.55,208.79Z" transform="translate(200.84 -131.5)"/><path class="cls-3" d="M-57.33,208.84a2.37,2.37,0,0,1,.47,0c-.06,0-.08-.05-.07-.06Z" transform="translate(200.84 -131.5)"/><path class="cls-3" d="M-160.46,215.36l-.06,0C-160.8,215.51-160.68,215.48-160.46,215.36Z" transform="translate(200.84 -131.5)"/><path class="cls-3" d="M-92.15,214.4l0,0h0Z" transform="translate(200.84 -131.5)"/><path class="cls-3" d="M-93.18,214.75c.43-.55.68-.49,1-.38l-.37-1.25Z" transform="translate(200.84 -131.5)"/><path class="cls-3" d="M-133.2,215.88l.73.38c-.86.66-1.5.45-.8,1,.07-1.36,2.82-.2,2.88-1.56l.49.27c-.14,0-.16.07-.29.06.94.63.66-1,1.87-.83.42.09.71.28.43.45l.92-.36c.28,0,.22.26-.06.24l1.42-.14v0a6.3,6.3,0,0,1,.87-.71c.37.19-.18.15-.08.32l.78-.35c.33.34-.32.7-.86.66.77,1.34.64-.35,2.25.4l-.74.19c.5.76,1.07.47,1.92.93-.21-.25-1.71-1.17-.86-1.53a1,1,0,0,0,1-.15c0,.48.46.35,1,.31l0,.64c.6-.2.55-.52.9-.82.68,0,.83.54,1,1,1.09.07-.77-.78.51-.93a4.05,4.05,0,0,0,2.61-.47c.64.21-.1.4.13.58l.55-.53c.13,0,.09.17.07.25.47-.21,0-.64.76-.83.19-.71,1.55,1,2.45.17.23.17-.1.39,0,.64a7.26,7.26,0,0,0,2.08-1.14l.89.4c-.65-.47.16-1.06.87-1.54a5.49,5.49,0,0,0-.57-.52l1.15-.37c.14.1,0,.32-.15.6l.21-.16c.41.22.21.6-.08,1-.14-.12-.29-.25-.42-.38a1.79,1.79,0,0,0-.47,1.2.9.9,0,0,1,.38-.18c-.08.11-.12.2-.09.27s.16-.08.35-.25l.28.71,0-.29,1.53.41c1.06-.74,2-1.82,3.69-2.16-.41.54-.07.86-.08,1.48-.48-.64-1.32.31-2.22.2.47.06.37.35.26.46l1.57-.63c0,.5.35.37.77.57-.34-1,1.16-.7,1.8-1,0,.33-.1.68-.89.62.89.73,1.1-1.2,2-.58-.19,0-.3,0-.37.13.44-.31,1.55-.1,1.3.2h-.2c1.28.09,3.89-.08,4.06-.94a6.32,6.32,0,0,1-.21,1.2l2.21-2.91c-.19.73.63,2.45-.42,2.89a1.65,1.65,0,0,0,1.32-.06c-.21-.1-.54-1-.26-1.12.8.79.55.42,1.52,1.09-.31-.15,0-1.3.5-1.28-.07.18.07,1.13-.11,1.26l1.2-1.16c-.3.21,0,1,.25,1.27-.13-.22,1.06,0,1.38-.13l-.52-.24c1.38.13,1.32-1.62,2.69-1.59-.16.23-.37,1.44.33,1.56.3-.58,1.35-2.8,2.55-3.28l.24.33.92-.4a21.21,21.21,0,0,1-3,3.47c.52.25.15.39.93.34.28.3-.42.48-.64.5l1.8.16c-.09-.67,1.37-.71,1.28-1.27l-1.94.75c-.09-.67,1.09-1.94,2.37-1.85.33.26-.21,1.2-.18,1.42.16-.23,1.2-.47,1.32-.31l-.53.38c.71.23,1.14-.92,2-.3.29,0,.9.84.94.44a6.06,6.06,0,0,1-.35-3.71,9.78,9.78,0,0,1,1.92,1.07c.5.59-.7,1.45-.27,2,0-.19.27-.42.38-.49.32.14-.11.57.56.47.1-.69,1.37,0,.3-.59.66-.21.71.13,1.48.08-.26-.44.66-1.52,1.31-1.73a.8.8,0,0,0,.19.5c1.36,0,2.09.32,3.35.3.12.16.73.34.48.64a1.17,1.17,0,0,1,.72-.38c.77.57-.86.11-.27.8,0-.39,1-.57,1.54-.83-.19-.61-1.28-.08-1.83.18,0-.85.92-1.75,2.22-2.18,1-.23.47.54.65.41,2,.1,1.64-1.51,3.28-.94.66.52.06,1.07.21,1.45-.85.23-1.32-.31-1.89-.27l.71.24a1.39,1.39,0,0,1-1.14.18c.55.47,3.32,0,4.84.42.27-.18.73-.38.5-.59l-.48.08c-.45-.42.89-.62.28-.8a3.18,3.18,0,0,1,2.26-.6l.18.61c0-.18-.6-.35-.85-.16.37-.28,1.41.8,1.8,0l-.64-.41c.64-.33,1.42-1,2.22-.82-.38-.6-.18.07-.77-.62.52.87-2.05,0-1.23.92-.61-.81-1-.33-1.81-1,0,.2.29.38-.39.3a1.24,1.24,0,0,1-.14.18l-.05,0,0,0s0,0,0,0a.75.75,0,0,1,.35.29c-.32.48-1.39.49-1.75.74-.4-.09.16-.24-.06-.45l-.53.37c-.07-.44-1.08-.72-.15-1h-.84a2.12,2.12,0,0,0-1.62-.13c-.4-.08-1,.52-.65.16l-1.33.32v-.12c-1.31,0-2.68.81-4.2,0a3.46,3.46,0,0,1-1.63.16L-69,209c-.57.15-1.72-.35-1.95.06-.64-1-2.75-.16-3.76-.32l0,.51a7.49,7.49,0,0,0-2.19.37l.06.45c-.72.38-1.89-.28-3-.2.07-.18.37-.14.58,0-1.41-1-2.91.81-4.18.1a.74.74,0,0,1-.76,0l.07,0h-.13a4.53,4.53,0,0,0-.44-.23,1.6,1.6,0,0,0,.38.23,3.8,3.8,0,0,0-1,.2l-.16-.48-.09,0c-.35-.17-.27.23-.08.59a1.72,1.72,0,0,0-.47.3c-.3-.77-.93.29-1.34-.53-.24.41-1.8.34-2,1.2,0-.11-.13-.16.07-.17a1.38,1.38,0,0,0-1.16.07l-.19-.61-.85.85c-.54-.36-.77-.57-.25-1.06-1.26.76-1,.3-2.09,1l0-.39c-.39,0-1,.57-1.24.25-.88-.74-4.29,0-6.53-.65.46,1.16-1-.5-1.11.41-.14-.27-.45-.42-.1-.67-1.13.3-1.71-.4-2.48.39-.14-.28.23-.41.11-.58-.09.07-.35.25-.47.09s.16-.23.33-.36c-1.15.08-1.25.93-1.32,1.73-.59-.37-.88-.31-1.3.23-.21-.26-.56-.52.16-.63-.4,0-2.48-.33-2.51.31-.13-.16-.57,0-.67.05a10.72,10.72,0,0,0-1.88,0l.25.1c-.34.77-.74.19-1.46.3l0-.08c-1.67-.52-.71.28-2.35-.32l.1.48c-.13,1-1.46-.57-2.4-.15l.35.26c-.51.37-1.48-1.37-2-1.48-.11-.09.18-.15.33-.22-1.37-.58-.16.63-1.17.8-.19-.33.22-.86-.46-.91-.34-.27-2,1.15-2.89.52.21.26.42.51-.05.72-.71.11-2-.94-2.6-.1a.28.28,0,0,1-.13-.2c-.55.22-1.78.39-2.1.85-.55-1.65-3.41.89-3.43-.64l-1.69.12,0-.16a2,2,0,0,0-1.83.68c-.26-.1-.08-.24-.06-.33a3.12,3.12,0,0,0-3.05.6l-.15-.5c-.35.3-2.31-.72-3.84-.1a.33.33,0,0,1,.16-.23c-1.73.63-4.21-1.27-4.81.55l-1.14.47c1.5.11-.2.79.42,1.08-.58.12-1.53-.51-.81-.62l.12.09c.24-.95-1.86-.29-1.84-.93-2.93.11-5.8-.34-8.55-.31l.33.72-.95,0c-.26-.16-.36-.56.33-.55-.37-.4-1.14.38-1.15.54-1.35-.27.5-.87.09-.88l-.56.07.13.08c-.45.31-.48.63-1.3.62-.52-.14-.28-.45-.48-.47,0,0-.07-.08-.32,0l-1.21,0,.5.57c-.53.29-1.14,0-.56.63-.85-1-4.51-.25-5-.55a4.09,4.09,0,0,1-2.4.42c.23.12.38.76-.41.7.26-1.34-1.46-.54-2.12-1.49.58.62-2.25.21-1.33,1.1-.66-.1,0-.5-.56-.81-1.56.56-3.47-.25-5.4,0,0,.18.3.44-.11.71l-1-.85c-.38.09-.33,1-1,.43.1.14.25.36,0,.42-3.83-.76-7.75.89-11.65-.62.53.33.18.37-.22.39.26.08,0,.43.06.67L-198,213c-.28.67-1.73.09-1.88.72l.51-.12c-.67.76,1,1.63.91,2.59.74-.86,2,1.21,3.26,0,.28.19-.22.32-.07.54.31-.42.69-.52,1.4-.35l-.08.11c2-.15,2.86.23,5.1.45l-.18-.47a1.6,1.6,0,0,1,.82.31c.53-.73-1.35,0-.87-.81.66.94,3.39-.07,3.85,1,.74,0-.23-.54.51-.55l.2.29.18-.39a.84.84,0,0,1,.77.67c-.12,0-.34.08-.46.1.63.34,1.77-.16,2-.05l-.72-.17c2-.32,4.49,0,6.42-.64l-.15-.22c1.48-.45,1.2.21,2.83,0l-.06.06a2,2,0,0,1,1.21-.34c-.41.27.79.49.25.79,1.61-.48.79-.37,1.84-1.22l.26.36a1.52,1.52,0,0,1,1.19-.64c-.66.34.54.56-.2,1,1.73.77,2.52-.88,3.34.29.76-1-1.5-.53-1.07-.76-.37-.33.64-.79,1.18-.7s1,1.29,2.34,1.24c-.14,0-.15.08-.29.08.53.25,1-.38,1.65,0,.34-.63.82,0,.9-.78l-1.26.21c.72-.22,1.37-1.16,2.56-.74a2,2,0,0,1-.68.5c.35.22.66-.17,1,.06-.08.79-1.53.21-2.29.83.38.33,1.44-.61,1.08.26.52-1.1,1.36.1,2.27-.75l0,.48a1.71,1.71,0,0,1,.72-.31l-.48.63c.74-.54,1.47.42,2.19.12-1.52,0-.36-.56-1-.9,1.86-.68,1.11,1.22,3.2.94-.29.07-1.08-.26-.64-.49a2.86,2.86,0,0,1,1.19.5c1.38-.13-.23-.48.35-.79.49.57.68-.25,1.28-.45l0,.48c1.59.27.39-1,1.83-.67l-.59.68.74-.19-.14.55a2.21,2.21,0,0,1,1.85-.19c-.2-.34.08-.88.78-.91.48.27-.26.46.73.37-.21.31-.45.69-.89.26,0,.16-.22.31-.26.46.52.32,1.3,0,1.66,0a.94.94,0,0,1-.4-.11l1.43-.7c.23.17.05.32-.12.47.29-.06.48-.28.91-.34-.1.4-.06.8-.67,1l1.37-.47c.09.17.71.45.54.6.76.21,1.84-.8,2.86-.52a.58.58,0,0,1,.36-.22c1,.07,1.8.53,2.91,0l.66.69c.87-.18-.89-.86.57-1.16,1-.25.4.59.77.77.51-.36,1.39-1.11,2.35-.56C-132.66,215.92-132.91,215.82-133.2,215.88Zm10.83-.57c-.2.11-.61.43-.78.15C-122.92,214.9-122.73,215.16-122.37,215.31Zm16.46-1.56c-.15.16-.4.09-.67-.09A1,1,0,0,1-105.91,213.75Zm45.84-4.47a0,0,0,0,0,0,0C-60.57,209.12-60.4,209.19-60.07,209.28Zm1,.18a.13.13,0,0,0,0-.2c-.06.12-.28.14-.53.11C-59.51,209.49-59.38,209.58-59.09,209.46Zm-104.52,2.73.19.12C-163.84,212.46-163.72,212.33-163.61,212.19Z" transform="translate(200.84 -131.5)"/><path class="cls-3" d="M-107.76,214.45a.64.64,0,0,1-.1-.26C-107.94,214.28-107.94,214.37-107.76,214.45Z" transform="translate(200.84 -131.5)"/><path class="cls-3" d="M-139.94,216.3h0a.16.16,0,0,0,0,.08Z" transform="translate(200.84 -131.5)"/><path class="cls-3" d="M-74.07,213.92a.82.82,0,0,1-.39-.24C-74.47,213.8-74.38,213.89-74.07,213.92Z" transform="translate(200.84 -131.5)"/><path class="cls-3" d="M-54,208.52l-.62.14a.85.85,0,0,1,.57.14C-54,208.69-54.15,208.53-54,208.52Z" transform="translate(200.84 -131.5)"/><path class="cls-3" d="M-48.47,211.37c.09-.06.19,0,.28-.07l0-.23C-48.61,211.1-48.87,211.29-48.47,211.37Z" transform="translate(200.84 -131.5)"/><path class="cls-3" d="M-53.34,210.11c.06.4.45.25.88.17h-.07C-52.42,209.71-52.88,209.91-53.34,210.11Z" transform="translate(200.84 -131.5)"/><path class="cls-3" d="M-52.36,210.26a1.91,1.91,0,0,1,.41,0C-51.91,210-52.12,210.2-52.36,210.26Z" transform="translate(200.84 -131.5)"/><path class="cls-3" d="M-57.86,209.16c.2.1.11-.52.23-.36C-57.41,208.28-59,209.46-57.86,209.16Z" transform="translate(200.84 -131.5)"/><polygon class="cls-3" points="147.89 79.94 147.72 79.44 147.49 79.85 147.89 79.94"/><path class="cls-3" d="M-56.41,211.15l.7.12c0-.08.08-.13.18-.17C-56,211.09-56.43,211-56.41,211.15Z" transform="translate(200.84 -131.5)"/><path class="cls-3" d="M-55.53,211.1A1.1,1.1,0,0,0-55,211,2.21,2.21,0,0,0-55.53,211.1Z" transform="translate(200.84 -131.5)"/><polygon class="cls-3" points="146.94 80.11 146.73 80.01 146.24 79.99 146.94 80.11"/><path class="cls-3" d="M-63.91,211.24l-.76.16c-.08.17.13.27.42.2S-63.79,211.4-63.91,211.24Z" transform="translate(200.84 -131.5)"/><path class="cls-3" d="M-61.58,212.55c-.21-.1-.22-.21-.34-.37v.62Z" transform="translate(200.84 -131.5)"/><path class="cls-3" d="M-63.79,212.75c-.08.17-1.1.52-.13.46C-63.85,213-63.09,212.87-63.79,212.75Z" transform="translate(200.84 -131.5)"/><polygon class="cls-3" points="125.55 80.75 125.75 80.73 125.69 79.72 125.55 80.75"/><path class="cls-3" d="M-85.34,214.92c.9.23.2-.63,1-.34.2-.25-.67-.24-.46-.45C-85.32,214.4-85.61,214.26-85.34,214.92Z" transform="translate(200.84 -131.5)"/><path class="cls-3" d="M-84.78,214.13a1.58,1.58,0,0,0,.27-.16A1,1,0,0,0-84.78,214.13Z" transform="translate(200.84 -131.5)"/><polygon class="cls-3" points="1.79 81.03 1.2 80.84 1.59 81.17 1.79 81.03"/><path class="cls-3" d="M-200.15,213.31l-.15-.64-.33.59C-200.5,213.23-200.25,213.17-200.15,213.31Z" transform="translate(200.84 -131.5)"/><path class="cls-3" d="M-120.72,216.58l0-.16c-.1-.17-.23-.18-.5-.2Z" transform="translate(200.84 -131.5)"/><polygon class="cls-3" points="72.24 84.79 72.37 84.8 72.11 84.22 72.24 84.79"/><path class="cls-3" d="M-135.19,217.19c.27,0,.58-.12.85-.1C-134.92,217.21-135.28,216.46-135.19,217.19Z" transform="translate(200.84 -131.5)"/><text class="cls-4" transform="translate(88.12 74.99)">MISTRZ</text></svg>