<svg id="Capa_1" enable-background="new 0 0 500.126 500.126" height="512" viewBox="0 0 500.126 500.126" width="512" xmlns="http://www.w3.org/2000/svg"><path d="m279.71 500.126c12.84 0 12.859-20 0-20h-20.778l-53.263-84.96h45.696c5.522 0 10-4.477 10-10v-27.719h43.918l106.772 37.164c6.331 2.204 13.287-2.712 13.287-9.444v-108.625c0-12.84-20-12.859-20 0v94.554l-88.368-30.758v-141.038l88.368-30.758v27.811c0 12.84 20 12.859 20 0v-41.88c0-6.701-6.929-11.653-13.287-9.444l-106.772 37.164h-80.546l57.429-105.503h12.368c4.865 10.017 15.14 16.94 27.004 16.94h103.348c16.542 0 30-13.458 30-30v-33.63c0-16.542-13.458-30-30-30h-103.347c-11.864 0-22.14 6.923-27.004 16.941h-100.508c-5.522 0-10 4.477-10 10v39.747c0 5.523 4.478 10 10 10h15.65l-57.429 105.503h-77.008c-16.542 0-30 13.458-30 30v115.255c0 16.542 13.458 30 30 30h39.72v27.719c0 5.523 4.478 10 10 10h45.696l-53.263 84.96h-20.777c-12.84 0-12.859 20 0 20h183.094zm-101.547-79.282v59.282h-37.165zm20 59.282v-59.282l37.165 59.282zm43.203-104.96h-106.407v-17.719h106.406v17.719zm-166.126-37.719c-5.514 0-10-4.486-10-10v-115.255c0-5.514 4.486-10 10-10h221.734v135.255zm126.726-155.255h-26.947l57.429-105.503h26.947zm2.061-125.504v-19.747h87.511v19.747zm230.859.127c0 7.123-.243 16.813-10 16.813h-103.347c-5.514 0-10-4.486-10-10v-33.628c0-5.514 4.486-10 10-10h103.348c9.657 0 10 9.697 10 16.815v20z"/><path d="m97.929 304.455c-3.556-2.369-8.328-2.182-11.7.436-3.298 2.56-4.643 7.058-3.334 11.013 1.337 4.04 5.215 6.871 9.483 6.871 4.173 0 8.011-2.716 9.417-6.639 1.533-4.281-.109-9.152-3.866-11.681z"/><path d="m134.189 308.945c-2.096-5.031-8.006-7.493-13.05-5.41-5.033 2.078-7.506 8.029-5.41 13.06 2.095 5.029 8.006 7.493 13.05 5.41 5.028-2.077 7.506-8.033 5.41-13.06z"/><path d="m424.798 232.484c-3.431-8.37-15.802-7.894-18.7.608-2.947 8.646 6.798 16.412 14.603 11.783 4.198-2.49 5.972-7.89 4.097-12.391z"/><path d="m92.38 218.022c-5.522 0-10 4.477-10 10v49.52c0 5.523 4.478 10 10 10h177.411c5.522 0 10-4.477 10-10v-49.52c0-5.523-4.478-10-10-10zm167.412 49.52h-37.521v-29.52h37.521zm-157.412-29.52h99.891v29.52h-99.891z"/></svg>